# xmcd
#
# Track frame offsets: 
#        150
#        23424
#        38939
#        51487
#        74351
#        87559
#        104016
#        124139
#        138928
#        165855
#        189240
#
# Disc length: 2849 seconds
#
# Revision: 0
# Processed by: cddbd v1.5.1PL0 Copyright (c) Steve Scherf et al.
# Submitted via: ExactAudioCopy v0.95a5
#
DISCID=920b1f0b
DTITLE=Lonesome Hank And The Heartaches - Broken Hearted Fool
DYEAR=2004
DGENRE=blues
TTITLE0=The One That Got Away
TTITLE1=Fishtail Cadillac
TTITLE2=One Eyed Cat
TTITLE3=Lonesome Hank
TTITLE4=Two Hound Dogs
TTITLE5=I Call My Baby Money
TTITLE6=Senorita
TTITLE7=Broken Hearted Fool
TTITLE8=Graces H&M Barb-Q
TTITLE9=Things Won't Be Right Without You
TTITLE10=Sports Bar Boogie
EXTD=
EXTT0=
EXTT1=
EXTT2=
EXTT3=
EXTT4=
EXTT5=
EXTT6=
EXTT7=
EXTT8=
EXTT9=
EXTT10=
PLAYORDER=
